<svg width="200" height="243" xmlns="http://www.w3.org/2000/svg" viewBox="0 0 49.00 59.62" shape-rendering="crispEdges"><path fill="#ffffff" d="M0 0h49v49H0z"/><path stroke="#000000" d="M2 2.5h7m2 0h4m3 0h2m2 0h2m3 0h3m1 0h5m2 0h1m1 0h7M2 3.5h1m5 0h1m2 0h1m5 0h3m3 0h1m1 0h2m3 0h2m5 0h1m2 0h1m5 0h1M2 4.5h1m1 0h3m1 0h1m1 0h1m3 0h1m1 0h1m2 0h2m1 0h1m3 0h4m2 0h1m4 0h1m2 0h1m1 0h3m1 0h1M2 5.5h1m1 0h3m1 0h1m1 0h1m1 0h1m2 0h2m1 0h2m2 0h1m1 0h2m2 0h1m1 0h1m2 0h3m1 0h2m1 0h1m1 0h3m1 0h1M2 6.5h1m1 0h3m1 0h1m1 0h2m1 0h2m5 0h10m2 0h1m2 0h4m1 0h1m1 0h3m1 0h1M2 7.5h1m5 0h1m1 0h2m4 0h2m2 0h1m1 0h1m3 0h1m4 0h1m2 0h2m4 0h1m5 0h1M2 8.5h7m1 0h1m1 0h1m1 0h1m1 0h1m1 0h1m1 0h1m1 0h1m1 0h1m1 0h1m1 0h1m1 0h1m1 0h1m1 0h1m1 0h1m1 0h1m1 0h7M10 9.5h1m2 0h2m3 0h5m3 0h5m1 0h2m1 0h1m1 0h2M2 10.5h1m1 0h5m2 0h2m1 0h2m2 0h1m1 0h7m1 0h1m2 0h2m1 0h4m2 0h5M5 11.5h2m2 0h4m1 0h2m1 0h1m1 0h6m1 0h1m3 0h1m2 0h1m5 0h1m1 0h1m4 0h1M3 12.5h1m1 0h1m2 0h2m3 0h2m1 0h2m7 0h1m2 0h1m1 0h5m1 0h3m1 0h2M2 13.5h1m2 0h1m3 0h1m1 0h2m1 0h3m1 0h5m1 0h1m2 0h2m5 0h1m1 0h5m1 0h1m1 0h3M2 14.5h1m1 0h1m3 0h3m3 0h2m3 0h2m1 0h1m2 0h1m1 0h3m2 0h1m3 0h3m4 0h1m2 0h1M3 15.5h1m1 0h3m2 0h1m1 0h3m2 0h1m3 0h3m2 0h1m1 0h1m2 0h1m1 0h1m3 0h3m3 0h1m1 0h1M2 16.5h1m1 0h6m3 0h4m1 0h1m1 0h1m1 0h1m4 0h3m2 0h2m1 0h4m1 0h7M2 17.5h2m2 0h2m3 0h1m2 0h1m1 0h2m2 0h1m1 0h2m2 0h1m1 0h1m2 0h4m1 0h3m4 0h1m1 0h1M2 18.5h2m1 0h1m1 0h5m1 0h6m2 0h1m4 0h1m5 0h2m5 0h1m2 0h1m1 0h2M2 19.5h1m1 0h1m1 0h1m2 0h1m2 0h2m1 0h1m2 0h1m1 0h1m1 0h4m1 0h2m2 0h6m1 0h1m1 0h1m3 0h3M2 20.5h1m1 0h3m1 0h3m5 0h2m1 0h1m6 0h1m2 0h2m3 0h1m1 0h1m5 0h3m1 0h1M4 21.5h1m2 0h1m3 0h2m2 0h2m2 0h2m1 0h1m2 0h1m3 0h1m4 0h3m2 0h4m2 0h1M3 22.5h8m1 0h1m2 0h2m2 0h1m2 0h6m2 0h1m2 0h2m2 0h6m2 0h2M3 23.5h1m2 0h1m3 0h3m1 0h1m4 0h2m1 0h1m3 0h1m5 0h1m2 0h4m3 0h1m1 0h3M2 24.5h2m1 0h2m1 0h1m1 0h1m1 0h1m2 0h2m1 0h2m1 0h2m1 0h1m1 0h2m1 0h2m3 0h1m3 0h1m1 0h1m1 0h1M4 25.5h3m3 0h2m1 0h2m1 0h1m1 0h1m2 0h2m3 0h1m2 0h6m2 0h2m3 0h3m1 0h1M3 26.5h1m2 0h8m2 0h2m1 0h1m1 0h6m1 0h1m3 0h1m1 0h1m1 0h8M3 27.5h3m3 0h2m2 0h2m1 0h1m3 0h1m1 0h4m7 0h1m5 0h1m4 0h3M2 28.5h3m1 0h5m1 0h1m1 0h2m1 0h2m1 0h1m1 0h1m5 0h3m1 0h5m1 0h1m1 0h3m2 0h1M2 29.5h1m1 0h2m1 0h1m1 0h2m4 0h2m1 0h1m3 0h1m2 0h2m1 0h2m1 0h1m2 0h2m1 0h5m2 0h3M2 30.5h1m1 0h1m3 0h2m2 0h2m1 0h5m2 0h1m1 0h1m2 0h1m2 0h4m2 0h2m1 0h1m2 0h1m2 0h2M9 31.5h1m1 0h4m1 0h5m5 0h1m1 0h4m6 0h2M2 32.5h2m2 0h5m2 0h2m3 0h2m2 0h1m1 0h3m3 0h2m1 0h1m1 0h2m1 0h1m4 0h2m1 0h1M2 33.5h3m4 0h1m2 0h1m2 0h3m8 0h4m2 0h1m1 0h4m2 0h3m2 0h1M4 34.5h1m2 0h5m3 0h1m2 0h2m3 0h4m2 0h5m4 0h1m1 0h1m1 0h1M2 35.5h2m2 0h2m1 0h2m5 0h2m1 0h1m2 0h1m1 0h1m1 0h1m1 0h2m1 0h2m1 0h1m2 0h1m1 0h1m1 0h5M6 36.5h1m1 0h1m2 0h2m3 0h1m3 0h3m1 0h2m3 0h3m4 0h2m1 0h1m3 0h4M3 37.5h4m2 0h2m4 0h5m2 0h3m2 0h2m3 0h1m4 0h2m1 0h1m1 0h1m2 0h1M2 38.5h1m2 0h2m1 0h1m6 0h3m1 0h1m1 0h6m1 0h1m5 0h1m3 0h6m2 0h1M10 39.5h1m3 0h5m3 0h1m3 0h4m2 0h1m3 0h1m1 0h1m3 0h3m1 0h1M2 40.5h7m3 0h2m2 0h2m4 0h1m1 0h1m1 0h1m2 0h1m4 0h2m1 0h2m1 0h1m1 0h1m1 0h1M2 41.5h1m5 0h1m1 0h7m1 0h1m1 0h3m3 0h5m5 0h1m1 0h1m3 0h3M2 42.5h1m1 0h3m1 0h1m1 0h1m2 0h1m1 0h4m1 0h7m5 0h1m1 0h1m1 0h1m1 0h6m1 0h1M2 43.5h1m1 0h3m1 0h1m1 0h4m2 0h1m1 0h1m1 0h1m3 0h1m1 0h1m2 0h1m1 0h1m1 0h1m3 0h3m1 0h1m1 0h1m2 0h1M2 44.5h1m1 0h3m1 0h1m1 0h1m1 0h1m5 0h1m4 0h1m4 0h1m4 0h2m1 0h2m1 0h1m2 0h1m1 0h1M2 45.5h1m5 0h1m3 0h2m1 0h2m2 0h2m1 0h1m1 0h1m3 0h2m1 0h2m1 0h1m1 0h5m3 0h1M2 46.5h7m1 0h1m2 0h1m1 0h1m5 0h1m1 0h3m3 0h1m2 0h2m2 0h1m2 0h1m2 0h1m2 0h1"/>  <rect x="0" y="49.00" width="49.00" height="10.62" fill="#ffffff"/>
  <text x="24.50" y="53.82" text-anchor="middle" font-family="Arial,Helvetica,sans-serif" font-size="4.02" font-weight="bold" fill="#111111">A2 - EASHAN</text>
  <text x="24.50" y="58.62" text-anchor="middle" font-family="Arial,Helvetica,sans-serif" font-size="3.33" font-weight="normal" fill="#555555">W23</text>
</svg>
