<svg width="200" height="245" xmlns="http://www.w3.org/2000/svg" viewBox="0 0 41.00 50.18" shape-rendering="crispEdges"><path fill="#ffffff" d="M0 0h41v41H0z"/><path stroke="#000000" d="M2 2.5h7m1 0h2m2 0h1m1 0h2m2 0h2m1 0h6m3 0h7M2 3.5h1m5 0h1m1 0h4m2 0h1m1 0h3m1 0h2m2 0h2m2 0h1m1 0h1m5 0h1M2 4.5h1m1 0h3m1 0h1m1 0h1m1 0h3m2 0h1m2 0h1m1 0h3m1 0h4m2 0h1m1 0h3m1 0h1M2 5.5h1m1 0h3m1 0h1m2 0h2m2 0h1m3 0h3m1 0h2m2 0h1m2 0h1m1 0h1m1 0h3m1 0h1M2 6.5h1m1 0h3m1 0h1m1 0h2m1 0h3m1 0h1m1 0h4m1 0h1m1 0h3m1 0h1m1 0h1m1 0h3m1 0h1M2 7.5h1m5 0h1m4 0h1m4 0h3m2 0h1m1 0h4m3 0h1m5 0h1M2 8.5h7m1 0h1m1 0h1m1 0h1m1 0h1m1 0h1m1 0h1m1 0h1m1 0h1m1 0h1m1 0h1m1 0h1m1 0h7M11 9.5h2m1 0h1m2 0h2m3 0h2m1 0h3M2 10.5h1m2 0h8m3 0h3m1 0h4m1 0h2m4 0h1m2 0h1m1 0h3M3 11.5h4m4 0h3m8 0h1m1 0h3m3 0h2m2 0h2m1 0h1M3 12.5h1m1 0h1m1 0h2m1 0h2m1 0h1m1 0h1m4 0h1m3 0h1m6 0h2m2 0h1m2 0h1M2 13.5h2m2 0h1m2 0h2m3 0h1m1 0h2m1 0h2m7 0h1m1 0h2m4 0h2M2 14.5h1m2 0h1m2 0h1m1 0h2m7 0h1m1 0h2m1 0h1m3 0h2m2 0h2m1 0h1m1 0h2M2 15.5h1m3 0h2m3 0h1m1 0h1m3 0h1m1 0h2m1 0h1m2 0h6m2 0h3M4 16.5h3m1 0h3m3 0h1m1 0h4m1 0h4m1 0h1m2 0h1m3 0h4m1 0h1M2 17.5h2m1 0h3m1 0h4m5 0h3m4 0h5m5 0h2M2 18.5h1m2 0h1m2 0h3m2 0h3m1 0h3m2 0h2m1 0h2m4 0h2m3 0h3M3 19.5h2m4 0h1m4 0h3m1 0h1m1 0h1m1 0h2m1 0h1m5 0h1m4 0h2M2 20.5h1m2 0h7m2 0h2m1 0h1m1 0h1m2 0h2m1 0h2m1 0h1m3 0h1m1 0h2m1 0h2M3 21.5h4m2 0h4m1 0h2m4 0h1m6 0h2m2 0h2m1 0h2m1 0h1M4 22.5h2m2 0h1m5 0h4m6 0h1m1 0h1m3 0h3m1 0h2M2 23.5h1m1 0h2m3 0h1m1 0h2m2 0h1m1 0h2m2 0h1m1 0h4m1 0h2m4 0h1M2 24.5h2m2 0h3m2 0h1m3 0h1m1 0h1m1 0h2m1 0h1m1 0h3m2 0h1m1 0h2m4 0h2M3 25.5h1m2 0h2m1 0h3m1 0h2m1 0h4m2 0h4m2 0h1m2 0h1m3 0h3M2 26.5h8m3 0h1m1 0h7m1 0h1m1 0h2m1 0h1m1 0h4m4 0h1M2 27.5h1m2 0h1m3 0h1m1 0h1m1 0h2m1 0h1m1 0h1m2 0h2m5 0h3m3 0h4M2 28.5h2m2 0h4m3 0h3m2 0h1m1 0h3m1 0h1m1 0h4m1 0h1m3 0h1m1 0h2M2 29.5h1m2 0h2m3 0h2m1 0h1m1 0h1m1 0h1m2 0h1m1 0h1m1 0h1m1 0h1m1 0h6m1 0h4M2 30.5h1m1 0h1m3 0h1m2 0h1m2 0h2m2 0h2m2 0h1m1 0h13m1 0h1M10 31.5h2m1 0h1m3 0h2m1 0h3m1 0h1m2 0h1m2 0h1m3 0h1m1 0h1M2 32.5h7m1 0h3m1 0h2m1 0h1m3 0h1m1 0h3m2 0h1m1 0h1m1 0h1m1 0h5M2 33.5h1m5 0h1m1 0h1m3 0h1m1 0h1m2 0h2m3 0h1m1 0h1m1 0h3m3 0h2M2 34.5h1m1 0h3m1 0h1m1 0h2m1 0h1m1 0h1m1 0h1m5 0h4m2 0h7m1 0h2M2 35.5h1m1 0h3m1 0h1m1 0h1m1 0h1m2 0h2m1 0h1m1 0h1m5 0h1m1 0h1m1 0h3m3 0h2M2 36.5h1m1 0h3m1 0h1m2 0h1m1 0h1m3 0h3m1 0h2m3 0h4m4 0h1m2 0h2M2 37.5h1m5 0h1m2 0h4m1 0h1m1 0h5m2 0h2m4 0h3m1 0h4M2 38.5h7m1 0h1m1 0h3m1 0h2m2 0h1m1 0h1m3 0h1m3 0h3m1 0h2m2 0h1"/>  <rect x="0" y="41.00" width="41.00" height="9.18" fill="#ffffff"/>
  <text x="20.50" y="45.16" text-anchor="middle" font-family="Arial,Helvetica,sans-serif" font-size="3.36" font-weight="bold" fill="#111111">JIYAUL HOQUE</text>
  <text x="20.50" y="49.18" text-anchor="middle" font-family="Arial,Helvetica,sans-serif" font-size="2.79" font-weight="normal" fill="#555555">LPD12066</text>
</svg>
