<svg width="200" height="245" xmlns="http://www.w3.org/2000/svg" viewBox="0 0 41.00 50.18" shape-rendering="crispEdges"><path fill="#ffffff" d="M0 0h41v41H0z"/><path stroke="#000000" d="M2 2.5h7m3 0h3m1 0h3m4 0h1m1 0h2m2 0h1m2 0h7M2 3.5h1m5 0h1m2 0h1m1 0h1m2 0h1m1 0h3m1 0h4m2 0h2m2 0h1m5 0h1M2 4.5h1m1 0h3m1 0h1m1 0h3m3 0h3m1 0h1m2 0h1m1 0h1m2 0h1m3 0h1m1 0h3m1 0h1M2 5.5h1m1 0h3m1 0h1m1 0h1m2 0h1m1 0h1m1 0h4m4 0h1m1 0h2m3 0h1m1 0h3m1 0h1M2 6.5h1m1 0h3m1 0h1m1 0h1m1 0h1m6 0h1m1 0h1m1 0h4m3 0h1m1 0h1m1 0h3m1 0h1M2 7.5h1m5 0h1m1 0h1m1 0h2m3 0h1m1 0h1m2 0h2m2 0h5m1 0h1m5 0h1M2 8.5h7m1 0h1m1 0h1m1 0h1m1 0h1m1 0h1m1 0h1m1 0h1m1 0h1m1 0h1m1 0h1m1 0h1m1 0h7M10 9.5h3m2 0h3m1 0h2m1 0h2m1 0h2m1 0h2M2 10.5h1m1 0h5m3 0h1m5 0h1m4 0h1m1 0h4m1 0h1m1 0h5M2 11.5h2m2 0h2m2 0h1m1 0h1m2 0h3m1 0h2m1 0h1m6 0h1m5 0h1m1 0h1M3 12.5h1m1 0h1m2 0h3m1 0h1m3 0h6m1 0h1m2 0h1m1 0h1m1 0h1m1 0h2m1 0h4M2 13.5h2m1 0h1m3 0h3m1 0h2m2 0h1m2 0h4m4 0h3m2 0h1m1 0h1M2 14.5h1m1 0h2m1 0h2m3 0h2m1 0h7m5 0h1m2 0h3m1 0h3m1 0h1M3 15.5h1m1 0h3m1 0h1m1 0h2m7 0h3m1 0h3m3 0h1M2 16.5h2m3 0h2m2 0h3m1 0h1m1 0h1m2 0h1m3 0h1m1 0h1m1 0h3m1 0h1m1 0h2m2 0h1M3 17.5h2m1 0h1m2 0h2m1 0h2m2 0h1m5 0h1m2 0h3m2 0h1m3 0h1m3 0h1M3 18.5h1m3 0h6m3 0h2m2 0h1m1 0h3m1 0h3m3 0h1m1 0h1m1 0h3M2 19.5h2m1 0h3m1 0h3m1 0h2m2 0h2m4 0h1m4 0h1m2 0h1m1 0h1m2 0h1M7 20.5h2m2 0h4m1 0h1m2 0h2m1 0h2m2 0h2m3 0h3m1 0h1m2 0h1M5 21.5h3m1 0h2m2 0h2m1 0h1m1 0h1m1 0h1m2 0h1m2 0h1m4 0h5m1 0h1M3 22.5h8m1 0h2m4 0h1m7 0h2m1 0h1m1 0h6M2 23.5h1m1 0h1m1 0h1m3 0h3m2 0h2m2 0h5m1 0h2m3 0h1m4 0h3M3 24.5h1m1 0h1m1 0h2m7 0h4m2 0h2m2 0h2m1 0h1m4 0h1m3 0h1M2 25.5h3m4 0h1m1 0h1m1 0h2m1 0h2m1 0h6m3 0h3m7 0h1M2 26.5h1m1 0h1m1 0h3m2 0h5m1 0h2m2 0h1m1 0h1m2 0h1m5 0h1m1 0h1m1 0h1M2 27.5h1m3 0h2m2 0h1m1 0h1m2 0h1m1 0h1m1 0h2m1 0h1m1 0h1m1 0h3m1 0h1m2 0h1m1 0h1m1 0h1M2 28.5h1m2 0h8m4 0h2m2 0h1m1 0h4m1 0h2m1 0h1m1 0h1m1 0h4M2 29.5h1m2 0h2m5 0h2m3 0h1m2 0h4m1 0h2m2 0h1m1 0h2M2 30.5h1m1 0h1m1 0h3m3 0h1m4 0h2m2 0h1m4 0h2m1 0h10M10 31.5h1m1 0h2m7 0h2m2 0h1m1 0h1m1 0h2m3 0h2m1 0h1M2 32.5h7m5 0h1m1 0h2m2 0h1m1 0h1m1 0h1m2 0h2m1 0h1m1 0h1m1 0h2m2 0h1M2 33.5h1m5 0h1m1 0h1m1 0h4m1 0h2m2 0h1m4 0h3m1 0h1m3 0h1M2 34.5h1m1 0h3m1 0h1m1 0h3m1 0h2m1 0h1m2 0h1m1 0h4m3 0h8m1 0h1M2 35.5h1m1 0h3m1 0h1m1 0h1m3 0h1m1 0h3m4 0h1m4 0h2m1 0h2m1 0h1m1 0h2M2 36.5h1m1 0h3m1 0h1m1 0h1m1 0h2m6 0h1m1 0h1m3 0h2m1 0h1m1 0h1m3 0h2m1 0h1M2 37.5h1m5 0h1m5 0h1m3 0h1m1 0h1m2 0h1m2 0h1m2 0h2m1 0h2m4 0h1M2 38.5h7m1 0h1m1 0h2m2 0h1m7 0h6m3 0h1m1 0h4"/>  <rect x="0" y="41.00" width="41.00" height="9.18" fill="#ffffff"/>
  <text x="20.50" y="45.16" text-anchor="middle" font-family="Arial,Helvetica,sans-serif" font-size="3.36" font-weight="bold" fill="#111111">FARHANA BANU</text>
  <text x="20.50" y="49.18" text-anchor="middle" font-family="Arial,Helvetica,sans-serif" font-size="2.79" font-weight="normal" fill="#555555">LPD12284</text>
</svg>
