<svg width="200" height="246" xmlns="http://www.w3.org/2000/svg" viewBox="0 0 37.00 45.46" shape-rendering="crispEdges"><path fill="#ffffff" d="M0 0h37v37H0z"/><path stroke="#000000" d="M2 2.5h7m2 0h1m6 0h1m1 0h3m2 0h1m2 0h7M2 3.5h1m5 0h1m3 0h2m3 0h4m1 0h3m1 0h1m1 0h1m5 0h1M2 4.5h1m1 0h3m1 0h1m1 0h1m1 0h1m1 0h1m1 0h1m3 0h1m2 0h1m4 0h1m1 0h3m1 0h1M2 5.5h1m1 0h3m1 0h1m1 0h3m1 0h1m2 0h1m3 0h1m3 0h2m1 0h1m1 0h3m1 0h1M2 6.5h1m1 0h3m1 0h1m1 0h1m1 0h2m1 0h4m2 0h1m3 0h2m1 0h1m1 0h3m1 0h1M2 7.5h1m5 0h1m1 0h1m1 0h5m7 0h1m1 0h1m1 0h1m5 0h1M2 8.5h7m1 0h1m1 0h1m1 0h1m1 0h1m1 0h1m1 0h1m1 0h1m1 0h1m1 0h1m1 0h7M10 9.5h1m1 0h3m1 0h1m1 0h1m1 0h2m1 0h4M2 10.5h1m1 0h5m2 0h2m1 0h3m2 0h3m2 0h1m1 0h1m1 0h5M2 11.5h1m1 0h2m5 0h2m2 0h1m2 0h1m1 0h6m1 0h3m2 0h3M3 12.5h1m3 0h4m2 0h5m8 0h1m2 0h2M4 13.5h4m2 0h1m4 0h1m5 0h1m1 0h1m2 0h1m2 0h1m1 0h2m1 0h1M2 14.5h1m1 0h1m3 0h3m1 0h2m2 0h2m4 0h1m1 0h1m1 0h1m3 0h2M5 15.5h2m2 0h1m1 0h1m3 0h1m1 0h1m3 0h1m3 0h5m4 0h1M2 16.5h2m1 0h1m1 0h2m1 0h3m2 0h6m2 0h1m2 0h1m1 0h2M2 17.5h1m1 0h1m1 0h2m1 0h1m1 0h2m3 0h3m1 0h2m1 0h4m1 0h1m3 0h3M2 18.5h1m3 0h1m1 0h2m3 0h1m2 0h1m2 0h2m3 0h1m4 0h2m3 0h1M2 19.5h3m1 0h2m2 0h2m1 0h1m7 0h1m3 0h1m2 0h2m1 0h2m1 0h1M2 20.5h1m1 0h1m3 0h3m1 0h1m2 0h3m1 0h2m3 0h1m3 0h1m3 0h1M3 21.5h1m2 0h2m4 0h4m1 0h2m3 0h2m7 0h3M2 22.5h1m1 0h2m2 0h1m2 0h6m1 0h1m2 0h1m2 0h2m3 0h1m1 0h1m1 0h1M2 23.5h1m1 0h1m2 0h1m1 0h2m7 0h4m1 0h1m1 0h4m3 0h3M2 24.5h1m2 0h2m1 0h1m1 0h3m2 0h1m1 0h1m1 0h2m1 0h3m4 0h1m3 0h1M2 25.5h1m3 0h2m2 0h1m1 0h5m3 0h1m1 0h3m1 0h1m1 0h2m1 0h4M2 26.5h1m2 0h5m2 0h1m1 0h4m1 0h2m3 0h7m1 0h1m1 0h1M10 27.5h4m5 0h1m1 0h1m1 0h1m2 0h1m3 0h1m3 0h1M2 28.5h7m2 0h1m2 0h1m2 0h1m2 0h1m2 0h1m1 0h2m1 0h1m1 0h4M2 29.5h1m5 0h1m1 0h3m1 0h1m5 0h2m1 0h4m3 0h3M2 30.5h1m1 0h3m1 0h1m1 0h1m2 0h3m1 0h1m6 0h1m1 0h6m1 0h1M2 31.5h1m1 0h3m1 0h1m1 0h2m1 0h2m1 0h1m3 0h4m1 0h3m1 0h3m1 0h2M2 32.5h1m1 0h3m1 0h1m1 0h1m1 0h3m2 0h2m3 0h5m1 0h1m3 0h1M2 33.5h1m5 0h1m3 0h2m1 0h1m1 0h1m4 0h4m3 0h1m1 0h2M2 34.5h7m1 0h1m1 0h1m4 0h5m4 0h1m2 0h1m1 0h3"/>  <rect x="0" y="37.00" width="37.00" height="8.46" fill="#ffffff"/>
  <text x="18.50" y="40.83" text-anchor="middle" font-family="Arial,Helvetica,sans-serif" font-size="3.03" font-weight="bold" fill="#111111">USHA</text>
  <text x="18.50" y="44.46" text-anchor="middle" font-family="Arial,Helvetica,sans-serif" font-size="2.52" font-weight="normal" fill="#555555">LPD08092</text>
</svg>
