<svg width="200" height="244" xmlns="http://www.w3.org/2000/svg" viewBox="0 0 45.00 54.90" shape-rendering="crispEdges"><path fill="#ffffff" d="M0 0h45v45H0z"/><path stroke="#000000" d="M2 2.5h7m2 0h1m1 0h1m3 0h1m3 0h1m1 0h1m1 0h1m1 0h1m2 0h1m2 0h2m1 0h7M2 3.5h1m5 0h1m3 0h1m1 0h2m3 0h1m2 0h3m1 0h5m1 0h1m1 0h1m1 0h1m5 0h1M2 4.5h1m1 0h3m1 0h1m1 0h1m1 0h1m4 0h1m3 0h4m3 0h1m1 0h1m2 0h1m2 0h1m1 0h3m1 0h1M2 5.5h1m1 0h3m1 0h1m1 0h1m1 0h1m1 0h2m3 0h1m4 0h1m1 0h3m1 0h2m4 0h1m1 0h3m1 0h1M2 6.5h1m1 0h3m1 0h1m1 0h1m1 0h3m1 0h4m2 0h1m1 0h3m2 0h2m2 0h1m2 0h1m1 0h3m1 0h1M2 7.5h1m5 0h1m1 0h1m1 0h5m1 0h1m3 0h1m1 0h1m2 0h1m1 0h4m3 0h1m5 0h1M2 8.5h7m1 0h1m1 0h1m1 0h1m1 0h1m1 0h1m1 0h1m1 0h1m1 0h1m1 0h1m1 0h1m1 0h1m1 0h1m1 0h1m1 0h7M10 9.5h1m1 0h1m5 0h1m1 0h1m1 0h3m3 0h3m1 0h1m1 0h1M2 10.5h1m1 0h5m2 0h1m1 0h3m2 0h2m4 0h1m1 0h6m1 0h1m2 0h5M2 11.5h1m2 0h3m2 0h1m2 0h1m1 0h1m1 0h7m1 0h1m1 0h2m1 0h1m2 0h1m1 0h4m1 0h3M3 12.5h2m1 0h4m2 0h3m1 0h2m9 0h6m2 0h1m1 0h1m1 0h3M3 13.5h1m2 0h1m5 0h2m7 0h1m1 0h1m2 0h1m1 0h1m3 0h2m1 0h4m2 0h1M2 14.5h2m4 0h1m1 0h2m2 0h5m3 0h1m2 0h4m1 0h2m1 0h1m3 0h1m2 0h1m1 0h1M2 15.5h1m2 0h1m3 0h1m1 0h1m1 0h1m1 0h1m2 0h1m1 0h2m1 0h3m1 0h1m1 0h2m1 0h5m1 0h5M2 16.5h1m1 0h1m1 0h1m1 0h2m1 0h1m3 0h3m2 0h1m1 0h3m1 0h4m5 0h1m3 0h3M2 17.5h1m1 0h1m1 0h2m4 0h1m3 0h3m4 0h4m3 0h1m1 0h1m1 0h2m2 0h2M2 18.5h2m1 0h2m1 0h1m1 0h6m1 0h4m1 0h1m3 0h1m1 0h1m2 0h1m2 0h1m2 0h1m2 0h2M3 19.5h2m5 0h1m3 0h1m1 0h1m2 0h1m2 0h2m1 0h1m1 0h2m1 0h1m1 0h7M2 20.5h4m2 0h1m1 0h4m2 0h1m1 0h1m8 0h4m3 0h5m1 0h1M3 21.5h1m3 0h1m2 0h2m4 0h2m3 0h1m1 0h1m1 0h1m3 0h1m2 0h2m1 0h2M3 22.5h2m1 0h1m1 0h2m1 0h1m1 0h1m1 0h1m1 0h1m2 0h1m1 0h1m2 0h4m2 0h1m1 0h1m1 0h1m1 0h1m2 0h1M2 23.5h3m1 0h2m2 0h5m2 0h4m1 0h1m2 0h1m2 0h1m1 0h1m1 0h2m2 0h3m3 0h1M3 24.5h3m1 0h3m1 0h1m2 0h5m1 0h1m3 0h1m1 0h1m1 0h2m1 0h1m4 0h2m2 0h1M3 25.5h1m2 0h2m1 0h2m1 0h3m1 0h2m3 0h1m1 0h1m6 0h1m3 0h1m1 0h2m1 0h1M6 26.5h4m3 0h1m1 0h1m1 0h1m1 0h1m6 0h3m2 0h1m2 0h1m2 0h1m1 0h4M2 27.5h1m3 0h2m1 0h1m2 0h1m1 0h1m3 0h4m3 0h1m4 0h4m2 0h3m2 0h2M2 28.5h1m1 0h1m2 0h3m1 0h1m2 0h1m2 0h2m1 0h1m5 0h2m1 0h1m5 0h2m3 0h2M5 29.5h1m1 0h1m3 0h1m1 0h2m7 0h2m4 0h1m3 0h2m2 0h1m1 0h2m1 0h2M3 30.5h1m4 0h1m1 0h3m1 0h2m1 0h1m3 0h2m3 0h4m1 0h1m2 0h1m4 0h3M2 31.5h1m1 0h4m3 0h1m2 0h5m2 0h1m1 0h1m1 0h1m1 0h1m2 0h1m1 0h3m1 0h1m1 0h1m1 0h2M2 32.5h1m2 0h4m1 0h3m2 0h5m7 0h4m1 0h1m1 0h1m3 0h2M2 33.5h1m3 0h2m2 0h5m6 0h1m1 0h1m4 0h1m1 0h1m2 0h1m3 0h3M2 34.5h1m2 0h1m1 0h2m2 0h2m1 0h1m2 0h5m3 0h4m2 0h1m2 0h5m1 0h3M10 35.5h1m1 0h1m1 0h1m1 0h2m1 0h3m1 0h3m4 0h2m2 0h1m3 0h5M2 36.5h7m5 0h6m8 0h2m2 0h3m1 0h1m1 0h1M2 37.5h1m5 0h1m1 0h1m5 0h2m1 0h3m1 0h1m1 0h2m1 0h3m2 0h2m3 0h1m2 0h2M2 38.5h1m1 0h3m1 0h1m1 0h1m10 0h2m3 0h4m1 0h1m2 0h5m1 0h1m1 0h1M2 39.5h1m1 0h3m1 0h1m1 0h1m1 0h1m3 0h2m1 0h2m1 0h4m4 0h3m1 0h2m1 0h1m1 0h1m1 0h2M2 40.5h1m1 0h3m1 0h1m1 0h4m2 0h1m1 0h3m8 0h3m3 0h6M2 41.5h1m5 0h1m4 0h1m3 0h1m1 0h1m1 0h1m1 0h1m1 0h1m2 0h2m3 0h3m2 0h2m1 0h1M2 42.5h7m1 0h1m1 0h3m3 0h3m4 0h1m1 0h2m1 0h2m5 0h2m1 0h1"/>  <rect x="0" y="45.00" width="45.00" height="9.90" fill="#ffffff"/>
  <text x="22.50" y="49.49" text-anchor="middle" font-family="Arial,Helvetica,sans-serif" font-size="3.69" font-weight="bold" fill="#111111">RUMIYA</text>
  <text x="22.50" y="53.90" text-anchor="middle" font-family="Arial,Helvetica,sans-serif" font-size="3.06" font-weight="normal" fill="#555555">W17</text>
</svg>
