<svg width="200" height="244" xmlns="http://www.w3.org/2000/svg" viewBox="0 0 45.00 54.90" shape-rendering="crispEdges"><path fill="#ffffff" d="M0 0h45v45H0z"/><path stroke="#000000" d="M2 2.5h7m1 0h1m1 0h2m1 0h1m1 0h1m1 0h1m1 0h1m1 0h1m1 0h6m1 0h3m1 0h7M2 3.5h1m5 0h1m1 0h2m1 0h4m1 0h1m1 0h1m1 0h2m1 0h3m3 0h2m1 0h1m1 0h1m5 0h1M2 4.5h1m1 0h3m1 0h1m2 0h1m1 0h2m2 0h1m1 0h1m1 0h1m2 0h1m1 0h2m1 0h1m3 0h2m1 0h1m1 0h3m1 0h1M2 5.5h1m1 0h3m1 0h1m1 0h2m1 0h2m1 0h1m1 0h1m8 0h2m2 0h1m4 0h1m1 0h3m1 0h1M2 6.5h1m1 0h3m1 0h1m3 0h1m2 0h1m1 0h1m5 0h1m5 0h3m1 0h1m2 0h1m1 0h3m1 0h1M2 7.5h1m5 0h1m2 0h1m2 0h1m2 0h2m1 0h4m7 0h1m1 0h1m2 0h1m5 0h1M2 8.5h7m1 0h1m1 0h1m1 0h1m1 0h1m1 0h1m1 0h1m1 0h1m1 0h1m1 0h1m1 0h1m1 0h1m1 0h1m1 0h1m1 0h7M10 9.5h2m1 0h1m2 0h1m2 0h1m4 0h1m4 0h3m1 0h2M2 10.5h1m1 0h2m1 0h3m2 0h1m1 0h4m1 0h2m2 0h1m4 0h2m1 0h3m2 0h1m2 0h1m1 0h2M3 11.5h2m1 0h1m4 0h3m2 0h7m2 0h1m2 0h1m1 0h2m1 0h1m2 0h3m1 0h1m1 0h1M3 12.5h2m1 0h6m1 0h1m1 0h2m1 0h2m2 0h2m1 0h4m1 0h3m1 0h1m1 0h1m1 0h2m1 0h1M2 13.5h3m5 0h1m2 0h1m1 0h1m1 0h2m1 0h1m3 0h1m2 0h4m4 0h1m1 0h3M5 14.5h1m2 0h2m2 0h2m1 0h2m1 0h1m6 0h1m1 0h2m2 0h1m1 0h2m2 0h1m2 0h2M5 15.5h3m1 0h1m1 0h2m3 0h2m1 0h2m1 0h1m3 0h6m1 0h1m1 0h3m1 0h1m2 0h1M3 16.5h1m3 0h4m1 0h1m1 0h1m1 0h1m3 0h5m1 0h1m1 0h1m4 0h2m1 0h1m1 0h1m1 0h1m1 0h1M2 17.5h1m6 0h6m1 0h1m3 0h1m1 0h2m4 0h1m1 0h1m4 0h1m2 0h2m1 0h2M2 18.5h1m1 0h1m1 0h1m1 0h1m3 0h1m1 0h4m3 0h1m1 0h1m1 0h1m1 0h1m1 0h1m2 0h1m2 0h1m2 0h1M2 19.5h2m1 0h2m4 0h1m2 0h5m6 0h3m1 0h1m1 0h2m1 0h1m2 0h1m2 0h3M3 20.5h1m3 0h2m1 0h1m1 0h1m1 0h2m1 0h2m1 0h1m1 0h1m3 0h1m1 0h3m1 0h1m1 0h5M2 21.5h2m1 0h3m1 0h1m2 0h3m4 0h3m3 0h2m2 0h6m1 0h3m1 0h2M4 22.5h2m1 0h3m2 0h2m1 0h1m1 0h2m2 0h1m1 0h2m3 0h2m1 0h3m2 0h1m1 0h5M4 23.5h1m2 0h1m1 0h1m1 0h1m1 0h1m3 0h3m2 0h1m1 0h3m2 0h2m1 0h2m2 0h4m2 0h1M3 24.5h1m2 0h1m1 0h1m2 0h1m5 0h1m1 0h1m3 0h4m3 0h1m1 0h1m1 0h1m2 0h3m1 0h1M4 25.5h2m1 0h1m2 0h2m5 0h2m1 0h3m1 0h1m1 0h2m4 0h3m6 0h1M2 26.5h3m1 0h3m1 0h5m2 0h1m1 0h1m6 0h4m1 0h1m1 0h2m5 0h1M2 27.5h4m1 0h1m1 0h2m1 0h3m1 0h2m3 0h2m3 0h5m2 0h2m1 0h1m3 0h1m1 0h1M2 28.5h3m1 0h3m1 0h1m2 0h2m1 0h1m4 0h1m1 0h2m3 0h1m1 0h1m2 0h1m2 0h5m1 0h1M2 29.5h1m4 0h1m2 0h1m1 0h1m2 0h1m6 0h2m4 0h1m4 0h1m2 0h4m1 0h1M3 30.5h2m1 0h3m1 0h2m1 0h1m2 0h2m1 0h3m2 0h2m1 0h1m2 0h1m1 0h1m1 0h2m1 0h3m1 0h2M4 31.5h1m2 0h1m3 0h5m2 0h1m3 0h2m1 0h3m6 0h2m3 0h2M2 32.5h1m4 0h2m1 0h2m1 0h1m1 0h6m5 0h2m1 0h1m8 0h2m1 0h1M4 33.5h2m3 0h1m3 0h1m1 0h3m1 0h1m9 0h3m3 0h1m3 0h3M3 34.5h1m1 0h4m3 0h2m2 0h2m1 0h1m1 0h4m3 0h13m1 0h1M10 35.5h4m5 0h2m1 0h1m2 0h1m1 0h1m2 0h5m3 0h1m2 0h2M2 36.5h7m1 0h4m2 0h3m1 0h1m1 0h2m1 0h2m3 0h1m1 0h3m1 0h1m1 0h1m2 0h1M2 37.5h1m5 0h1m1 0h2m1 0h1m2 0h2m1 0h1m4 0h5m1 0h1m1 0h1m1 0h1m3 0h1M2 38.5h1m1 0h3m1 0h1m2 0h1m1 0h6m3 0h1m2 0h4m2 0h1m2 0h7m1 0h1M2 39.5h1m1 0h3m1 0h1m1 0h3m3 0h3m5 0h1m1 0h1m1 0h3m2 0h1m4 0h2m2 0h1M2 40.5h1m1 0h3m1 0h1m1 0h1m2 0h2m1 0h1m1 0h4m1 0h2m2 0h1m2 0h5m2 0h1m2 0h3M2 41.5h1m5 0h1m4 0h1m1 0h1m5 0h1m1 0h1m4 0h1m1 0h1m3 0h1m3 0h2m1 0h1M2 42.5h7m1 0h2m1 0h1m1 0h2m1 0h2m2 0h2m1 0h3m1 0h2m1 0h1m1 0h2m3 0h1m1 0h1"/>  <rect x="0" y="45.00" width="45.00" height="9.90" fill="#ffffff"/>
  <text x="22.50" y="49.49" text-anchor="middle" font-family="Arial,Helvetica,sans-serif" font-size="3.69" font-weight="bold" fill="#111111">RUMIYA</text>
  <text x="22.50" y="53.90" text-anchor="middle" font-family="Arial,Helvetica,sans-serif" font-size="3.06" font-weight="normal" fill="#555555">W04</text>
</svg>
