<svg width="200" height="246" xmlns="http://www.w3.org/2000/svg" viewBox="0 0 37.00 45.46" shape-rendering="crispEdges"><path fill="#ffffff" d="M0 0h37v37H0z"/><path stroke="#000000" d="M2 2.5h7m3 0h3m1 0h1m2 0h1m1 0h1m3 0h2m1 0h7M2 3.5h1m5 0h1m3 0h1m1 0h1m2 0h1m4 0h3m3 0h1m5 0h1M2 4.5h1m1 0h3m1 0h1m1 0h1m1 0h2m2 0h1m3 0h1m2 0h2m3 0h1m1 0h3m1 0h1M2 5.5h1m1 0h3m1 0h1m1 0h2m5 0h1m1 0h2m3 0h1m1 0h1m1 0h1m1 0h3m1 0h1M2 6.5h1m1 0h3m1 0h1m1 0h1m2 0h6m1 0h4m1 0h1m2 0h1m1 0h3m1 0h1M2 7.5h1m5 0h1m1 0h1m3 0h2m3 0h2m7 0h1m5 0h1M2 8.5h7m1 0h1m1 0h1m1 0h1m1 0h1m1 0h1m1 0h1m1 0h1m1 0h1m1 0h1m1 0h7M10 9.5h1m2 0h1m4 0h1m3 0h2m2 0h1M2 10.5h1m1 0h5m2 0h2m1 0h2m3 0h4m3 0h1m1 0h5M6 11.5h2m1 0h2m1 0h4m4 0h2m1 0h1m1 0h1m1 0h3m2 0h1M2 12.5h3m1 0h5m1 0h7m1 0h1m2 0h2m1 0h1m2 0h2m2 0h1M2 13.5h1m2 0h2m2 0h1m3 0h3m1 0h2m1 0h2m1 0h3m1 0h1m1 0h1m1 0h3M3 14.5h6m1 0h3m3 0h3m2 0h1m3 0h2m3 0h2m1 0h1M3 15.5h1m2 0h2m2 0h1m3 0h1m2 0h1m1 0h4m2 0h1m2 0h2m1 0h1m2 0h1M8 16.5h1m1 0h2m1 0h3m1 0h2m3 0h3m1 0h1m1 0h1m2 0h2M2 17.5h2m1 0h3m1 0h5m3 0h1m2 0h1m2 0h1m1 0h1m2 0h1m1 0h5M3 18.5h3m1 0h3m3 0h1m3 0h1m1 0h2m1 0h1m2 0h2m2 0h2m1 0h1m1 0h1M2 19.5h1m2 0h1m1 0h1m1 0h1m2 0h1m2 0h2m1 0h1m1 0h2m1 0h1m1 0h1m2 0h2m1 0h3M3 20.5h1m1 0h1m1 0h3m2 0h1m1 0h1m2 0h1m1 0h2m11 0h2M3 21.5h1m1 0h1m1 0h1m2 0h1m1 0h1m3 0h3m1 0h2m1 0h1m2 0h1m1 0h1m2 0h2m1 0h1M3 22.5h1m4 0h3m2 0h1m3 0h1m1 0h2m4 0h2m2 0h3M2 23.5h3m1 0h2m1 0h1m5 0h4m1 0h6m2 0h2m3 0h2M2 24.5h1m1 0h6m2 0h2m2 0h1m2 0h2m5 0h1m4 0h3M2 25.5h1m4 0h1m1 0h3m1 0h1m1 0h2m1 0h1m1 0h1m2 0h1m1 0h2m1 0h2m1 0h3M2 26.5h1m1 0h1m2 0h2m1 0h1m3 0h3m2 0h1m1 0h1m2 0h1m1 0h7m1 0h1M10 27.5h1m1 0h1m5 0h1m1 0h2m4 0h1m3 0h1m2 0h1M2 28.5h7m2 0h1m1 0h8m4 0h2m1 0h1m1 0h4M2 29.5h1m5 0h1m1 0h1m1 0h3m3 0h1m1 0h1m1 0h2m1 0h2m3 0h3m1 0h1M2 30.5h1m1 0h3m1 0h1m1 0h2m1 0h3m3 0h1m6 0h6M2 31.5h1m1 0h3m1 0h1m1 0h1m4 0h3m4 0h1m3 0h2m1 0h2m2 0h2M2 32.5h1m1 0h3m1 0h1m1 0h1m1 0h2m2 0h5m2 0h1m1 0h1m2 0h1m2 0h2M2 33.5h1m5 0h1m2 0h1m4 0h3m2 0h1m1 0h2m2 0h3m1 0h2M2 34.5h7m1 0h3m1 0h1m1 0h1m2 0h1m4 0h1m1 0h1m2 0h1m2 0h2"/>  <rect x="0" y="37.00" width="37.00" height="8.46" fill="#ffffff"/>
  <text x="18.50" y="40.83" text-anchor="middle" font-family="Arial,Helvetica,sans-serif" font-size="3.03" font-weight="bold" fill="#111111">Hall B</text>
  <text x="18.50" y="44.46" text-anchor="middle" font-family="Arial,Helvetica,sans-serif" font-size="2.52" font-weight="normal" fill="#555555">RUMIYA-1</text>
</svg>
