<svg width="200" height="246" xmlns="http://www.w3.org/2000/svg" viewBox="0 0 37.00 45.46" shape-rendering="crispEdges"><path fill="#ffffff" d="M0 0h37v37H0z"/><path stroke="#000000" d="M2 2.5h7m1 0h3m2 0h3m1 0h2m1 0h1m2 0h2m1 0h7M2 3.5h1m5 0h1m3 0h1m2 0h2m3 0h3m1 0h1m3 0h1m5 0h1M2 4.5h1m1 0h3m1 0h1m2 0h4m1 0h1m1 0h1m2 0h2m2 0h2m1 0h1m1 0h3m1 0h1M2 5.5h1m1 0h3m1 0h1m1 0h1m2 0h1m4 0h2m3 0h3m2 0h1m1 0h3m1 0h1M2 6.5h1m1 0h3m1 0h1m1 0h1m4 0h1m2 0h5m3 0h1m1 0h1m1 0h3m1 0h1M2 7.5h1m5 0h1m1 0h1m3 0h1m1 0h2m3 0h3m1 0h1m2 0h1m5 0h1M2 8.5h7m1 0h1m1 0h1m1 0h1m1 0h1m1 0h1m1 0h1m1 0h1m1 0h1m1 0h1m1 0h7M10 9.5h2m2 0h1m4 0h1m3 0h4M2 10.5h1m3 0h1m1 0h3m4 0h1m1 0h5m1 0h1m1 0h7m2 0h1M2 11.5h2m3 0h1m2 0h1m5 0h2m1 0h2m1 0h1m2 0h1m6 0h2M2 12.5h1m1 0h1m3 0h6m1 0h5m4 0h2m1 0h1m1 0h1m1 0h2M3 13.5h1m1 0h2m4 0h1m1 0h3m2 0h1m1 0h2m2 0h1m1 0h2m1 0h2m3 0h1M6 14.5h4m1 0h2m2 0h1m2 0h2m3 0h1m1 0h1m1 0h2m1 0h2m1 0h2M9 15.5h1m2 0h2m1 0h2m4 0h3m3 0h1m1 0h1m1 0h1m1 0h1M2 16.5h1m1 0h6m1 0h2m3 0h2m3 0h3m1 0h1m2 0h1m1 0h2M4 17.5h2m1 0h1m1 0h3m1 0h1m2 0h4m1 0h1m1 0h3m2 0h1m2 0h1m1 0h2M2 18.5h3m1 0h5m8 0h1m1 0h1m1 0h1m2 0h3m1 0h1m2 0h1M5 19.5h2m3 0h2m2 0h4m2 0h1m1 0h2m1 0h1m1 0h1m3 0h3M5 20.5h5m1 0h3m3 0h1m1 0h2m4 0h2m3 0h2M2 21.5h2m1 0h3m1 0h2m1 0h1m2 0h3m1 0h1m1 0h1m2 0h2m2 0h1m1 0h1m3 0h1M2 22.5h1m1 0h1m3 0h1m6 0h1m4 0h2m1 0h6m1 0h2m1 0h2M2 23.5h5m2 0h1m1 0h1m1 0h2m3 0h1m1 0h3m2 0h2m2 0h1m2 0h1M4 24.5h3m1 0h1m1 0h4m1 0h2m1 0h1m5 0h2m4 0h4M4 25.5h1m5 0h2m2 0h1m4 0h2m1 0h3m3 0h3m3 0h1M2 26.5h3m1 0h3m1 0h3m1 0h2m1 0h1m1 0h1m1 0h4m1 0h5m2 0h1M10 27.5h3m1 0h1m2 0h4m1 0h2m2 0h1m3 0h1M2 28.5h7m1 0h1m4 0h1m1 0h2m1 0h1m5 0h1m1 0h1m1 0h1M2 29.5h1m5 0h1m2 0h2m2 0h1m1 0h1m4 0h2m2 0h1m3 0h1m3 0h1M2 30.5h1m1 0h3m1 0h1m1 0h1m1 0h2m2 0h1m1 0h1m2 0h1m1 0h1m2 0h6m1 0h2M2 31.5h1m1 0h3m1 0h1m2 0h1m1 0h1m5 0h2m1 0h3m1 0h1m1 0h1m1 0h2m1 0h1M2 32.5h1m1 0h3m1 0h1m2 0h1m1 0h3m1 0h1m2 0h2m1 0h2m1 0h1m1 0h1m1 0h3M2 33.5h1m5 0h1m3 0h1m1 0h7m1 0h2m1 0h2m1 0h3M2 34.5h7m1 0h2m3 0h2m2 0h1m1 0h4m1 0h2m6 0h1"/>  <rect x="0" y="37.00" width="37.00" height="8.46" fill="#ffffff"/>
  <text x="18.50" y="40.83" text-anchor="middle" font-family="Arial,Helvetica,sans-serif" font-size="3.03" font-weight="bold" fill="#111111">VINALA LINE</text>
  <text x="18.50" y="44.46" text-anchor="middle" font-family="Arial,Helvetica,sans-serif" font-size="2.52" font-weight="normal" fill="#555555">B2</text>
</svg>
